<svg width="76" height="54" viewBox="0 0 76 54" fill="none" xmlns="http://www.w3.org/2000/svg">
<path d="M37.2466 2.48193C38.0079 2.43852 38.6981 2.8393 39.3744 3.13825C39.9837 3.40648 40.5958 3.66847 41.2105 3.924C42.6493 4.50699 44.0841 5.1 45.5146 5.70295C46.1438 5.96955 46.8015 6.23302 47.4115 6.53361C47.8338 6.76814 48.2454 7.23616 48.2414 7.74493C48.2323 8.86037 48.2865 10.0171 48.2118 11.1253C48.1882 11.4739 47.8919 11.7866 47.6144 11.9685C47.6354 12.9671 47.6205 14.0112 47.6199 15.0131L64.2495 14.6396C66.2396 14.5999 68.2299 14.5461 70.22 14.5092C70.6007 14.5021 70.9944 14.4598 71.374 14.4925C71.8132 14.5297 72.2289 14.7067 72.5601 14.9975C73.4668 15.781 73.2727 16.9583 73.2987 18.0492C73.3317 19.1371 73.3582 20.2252 73.3782 21.3135L73.5877 29.7051L73.712 34.7693C73.7192 35.0724 73.7374 35.3878 73.7337 35.6881C73.7279 36.6424 73.9499 37.5821 73.2296 38.3563C72.4537 39.1905 70.9247 38.9711 69.8522 38.9892C68.4041 39.0243 66.9556 39.0514 65.5072 39.0701L54.8652 39.2835C53.1967 39.3001 51.5284 39.3299 49.8604 39.373C49.1037 39.3884 48.3148 39.377 47.5633 39.4179C47.5715 40.3719 47.5741 41.3261 47.5709 42.2803C47.7639 42.3703 48.0905 42.4893 48.1117 42.7319C48.1484 43.1522 48.1352 43.5858 48.135 44.0084L48.1288 46.606C47.7474 46.8182 47.1616 47.0771 46.7536 47.2672L44.4089 48.3574C42.5198 49.2417 40.532 50.225 38.6435 51.0724C38.5101 51.1296 38.3722 51.1885 38.2344 51.2338C37.6754 51.4197 37.0754 51.4449 36.5028 51.3062C35.9429 51.1655 34.0818 50.2447 33.4012 49.9424L29.3327 48.115C28.5115 47.7497 27.5208 47.3487 26.7396 46.9505C26.3272 45.6058 26.66 43.8671 26.9379 42.5115L27.2484 42.3347L27.2427 39.8362C21.752 39.8836 16.1844 40.0895 10.6807 40.1701L6.53458 40.2447C5.90968 40.2544 4.87053 40.2961 4.2905 40.2384C3.89945 40.1996 3.53011 40.0403 3.23357 39.7824C2.40705 39.0675 2.5852 37.7983 2.57609 36.7924C2.56633 35.6808 2.56545 34.5691 2.57344 33.4574L2.5659 25.7804L2.56462 20.417C2.5637 19.4744 2.5336 18.4931 2.59958 17.5569C2.65254 16.8056 3.51329 16.0416 4.25307 15.9763C5.03896 15.9069 5.86156 15.9218 6.65188 15.9078L11.1862 15.8124L27.395 15.4551L27.3884 12.2493C27.322 12.2021 27.2569 12.153 27.1934 12.1021C26.5799 11.6032 26.6652 10.5007 26.6837 9.77526C26.7077 8.83662 26.4835 7.59338 27.1371 6.83672C27.5582 6.34925 28.4555 6.08845 29.073 5.82348C30.1404 5.35383 31.2125 4.89486 32.2891 4.44658L35.0592 3.24275C35.7959 2.92034 36.4335 2.54242 37.2466 2.48193Z" fill="#2B2B2B"/>
<path d="M37.0903 2.99769C37.9174 2.93416 38.4723 3.28113 39.2087 3.595L41.4447 4.5384L44.7855 5.93156C45.3645 6.16935 46.4137 6.56769 46.9392 6.84334C46.4896 7.07438 45.8995 7.32672 45.4332 7.54069C44.2388 8.08761 43.0396 8.62407 41.8358 9.15013C41.0198 9.51224 38.4331 10.7852 37.7074 10.8567C36.7332 10.8279 34.0383 9.54861 33.0311 9.12957L29.6597 7.7163C29.0328 7.45237 28.3566 7.19098 27.7458 6.90137C28.2295 6.64465 29.1108 6.33672 29.6545 6.1013L33.9604 4.24753C34.6752 3.93782 36.4162 3.08453 37.0903 2.99769Z" fill="#FEFEFE"/>
<path d="M54.4889 22.2257C55.656 22.2004 56.6385 22.2504 57.4464 23.2283C57.8876 23.7613 58.0993 24.4476 58.0351 25.1365C57.96 25.8728 57.6135 26.3888 57.0505 26.841C58.5709 27.7453 58.8197 29.5491 57.6747 30.9033C57.3213 31.3213 56.881 31.5586 56.3786 31.762C56.2681 31.7991 56.1561 31.8317 56.043 31.86C55.289 32.0485 54.3741 31.9988 53.5917 32.033C53.1555 32.0521 52.4305 32.1153 52.0654 31.8983C51.981 31.7629 51.9326 31.3778 51.9295 31.2071C51.8782 28.4275 51.8111 25.6471 51.809 22.8669C51.8088 22.7197 51.8333 22.4621 51.9309 22.3549C52.2655 22.2272 54.015 22.2386 54.4889 22.2257Z" fill="#FEFEFE"/>
<path d="M53.4773 27.895C54.1546 27.8976 54.9953 27.81 55.6465 27.915C56.7308 28.0898 57.1548 29.1034 56.372 29.9304C55.6718 30.5157 54.4382 30.3571 53.5096 30.3538C53.4986 29.5303 53.4755 28.7206 53.4773 27.895Z" fill="#2B2B2B"/>
<path d="M54.5965 23.8248C55.3487 23.7908 56.222 23.8324 56.4033 24.7608C56.4658 25.0664 56.3959 25.3841 56.2111 25.6353C55.9392 26.0036 55.5743 26.1397 55.143 26.2002C54.6208 26.2281 53.9776 26.2157 53.4462 26.2192L53.4019 23.8422C53.8001 23.8429 54.1984 23.8371 54.5965 23.8248Z" fill="#2B2B2B"/>
<path d="M46.3882 39.4445L47.0917 39.431L47.0878 42.0708C46.647 41.8297 46.1982 41.9811 46.173 42.4814C46.1397 43.1419 46.1818 43.8813 46.1789 44.5447C45.6268 44.3309 44.9196 43.9949 44.3734 43.7485C43.2016 43.2199 42.0334 42.6833 40.869 42.1386C40.2605 41.8571 39.6313 41.5773 39.0201 41.2982C38.9194 41.2521 38.8167 41.2415 38.7092 41.2718C38.6157 41.3809 38.6434 41.3193 38.6265 41.4648C38.6781 41.5819 38.7806 41.6809 38.8973 41.7299C40.1601 42.2587 41.4117 42.8707 42.6573 43.4369C43.6331 43.8804 44.6303 44.2894 45.5835 44.7627C45.2145 44.9703 44.7783 45.165 44.3922 45.3479C43.839 45.5887 43.2784 45.8805 42.73 46.1414L39.8579 47.4937C39.4511 47.6877 39.0566 47.9018 38.6451 48.0833C38.6298 47.6095 38.6721 47.1516 38.6231 46.6719C38.2597 46.2977 38.0651 46.3445 37.5401 46.3282L37.5277 39.5915C37.7645 39.5854 38.0122 39.5872 38.2501 39.5852C38.2519 39.9028 38.1778 40.7349 38.3535 40.939C38.4758 40.9634 38.4134 40.9679 38.5427 40.8944C38.6609 40.7029 38.6024 39.8867 38.6087 39.5932C41.1854 39.5336 43.8245 39.5322 46.3882 39.4445Z" fill="#FEFEFE"/>
<path d="M38.3069 43.1005C38.7025 43.1715 42.7768 45.0206 43.4559 45.3476C43.5273 45.3819 43.4929 45.5223 43.4815 45.6038C43.217 45.5631 38.6284 43.4827 38.3082 43.2259L38.3069 43.1005Z" fill="#444444"/>
<path d="M36.4372 39.6255L37.0879 39.6076C37.1055 41.8502 37.1118 44.0928 37.1068 46.3355C36.8464 46.332 36.2783 46.2585 36.0901 46.4772C35.9408 46.6508 36.0375 47.8633 36.0378 48.1605C34.2988 47.3919 32.5663 46.6086 30.8405 45.8108C30.2361 45.5261 29.5505 45.2418 28.9683 44.9334C29.5508 44.6064 30.6029 44.1439 31.2291 43.8498C32.5228 43.2461 33.8116 42.6321 35.0955 42.0079C35.3309 41.9076 35.3935 41.915 35.4812 41.7007C35.4579 41.5645 35.4902 41.6184 35.3813 41.5336C35.0854 41.4888 34.1076 42.0275 33.781 42.1807C32.5598 42.7462 31.3436 43.3224 30.1326 43.9093C29.6785 44.1271 28.9109 44.5487 28.4897 44.7063C28.4803 44.2099 28.4891 43.6446 28.497 43.1491C28.5107 42.2998 28.52 42.2771 27.6489 42.1706C27.689 41.4106 27.6836 40.5967 27.691 39.832C28.5821 39.7831 29.6156 39.7879 30.5228 39.7628C32.3785 39.7066 34.2348 39.6676 36.0913 39.6459C36.0932 39.9606 36.0168 41.2817 36.2599 41.3898L36.3757 41.3253C36.4952 41.157 36.4367 39.9331 36.4372 39.6255Z" fill="#FEFEFE"/>
<path d="M36.4966 43.0259C36.5106 43.0297 36.5583 43.0636 36.5728 43.0731L36.5764 43.1505C36.4272 43.3368 32.4673 45.1498 31.9656 45.3683L31.8593 45.3433L31.8428 45.2764C31.9921 45.0629 35.9551 43.2817 36.4966 43.0259Z" fill="#444444"/>
<path d="M46.604 42.3709C46.9407 42.4771 47.3171 42.6478 47.642 42.7926L47.6525 46.3353C47.3148 46.5287 46.6594 46.8164 46.2854 46.9898C45.4104 47.3907 44.5377 47.7966 43.6673 48.2072L40.548 49.6712C39.7263 50.0668 37.7276 51.2021 36.8729 50.9552C35.7423 50.6286 34.286 49.8811 33.1869 49.3808C32.2404 48.9499 31.2195 48.5226 30.2785 48.0882C30.4782 47.8387 31.0373 47.4098 30.963 47.1041C30.606 46.8222 30.1101 47.6216 29.8953 47.8903C29.0417 47.5162 27.8661 47.0599 27.0699 46.6602C26.9769 46.3489 26.9649 45.9853 26.9468 45.6622C26.9735 44.5884 27.0601 43.8522 27.3021 42.8091C27.517 42.7013 27.8055 42.5132 28.0326 42.648C28.1166 42.8164 28.0727 44.632 28.09 44.9863C28.7532 45.3439 35.8832 48.6536 36.3239 48.6687C36.5602 48.4425 36.4601 47.1636 36.4598 46.7819C37.0467 46.7784 37.6336 46.7922 38.2198 46.8233C38.2236 47.0197 38.2336 47.3615 38.2144 47.5529C38.0459 49.2297 39.245 48.3006 40.1501 47.8501C40.8254 47.5109 41.5058 47.1823 42.1912 46.8643L45.0951 45.4924C45.4791 45.3098 46.2567 44.9662 46.5781 44.7566C46.6273 44.0698 46.5894 43.0939 46.604 42.3709Z" fill="#FEFEFE"/>
<path d="M45.9419 22.3631C46.3902 22.2968 46.4747 22.3791 46.6412 22.7767C47.3115 24.3776 47.8844 26.0206 48.5205 27.633C48.896 28.5597 49.2648 29.4893 49.6266 30.4217C49.7575 30.7576 50.0879 31.5342 50.1267 31.8591C49.9681 32.2327 48.8606 32.1596 48.7224 32.0643C48.4167 31.8536 48.1267 30.9284 47.9852 30.5438L46.5908 30.5768C45.927 30.5883 45.2634 30.6075 44.6 30.6344C44.419 31.0726 44.1422 31.8082 43.9258 32.195C43.7652 32.2166 42.4208 32.3552 42.4995 31.9856C42.6256 31.3935 42.89 30.7281 43.0953 30.1509L44.2678 26.8651L45.2679 24.0608C45.405 23.6713 45.7166 22.6003 45.9419 22.3631Z" fill="#FEFEFE"/>
<path d="M46.2064 26.3491C46.4238 26.6038 47.136 28.447 47.308 28.8706L46.3682 28.8855L45.2583 28.8919C45.4035 28.3611 45.9689 26.8299 46.2064 26.3491Z" fill="#2B2B2B"/>
<path d="M4.10369 30.2059C4.1982 30.2139 4.21092 30.2184 4.30368 30.2393C4.53479 30.462 4.44174 31.456 4.44019 31.8035L4.43657 34.5654C4.438 35.1753 4.42194 36.088 4.53159 36.6617C4.58732 36.9641 4.70076 37.2529 4.86573 37.5124C5.16997 37.9946 5.65643 38.3332 6.21432 38.4509C6.63227 38.5376 7.45215 38.4828 7.90838 38.4697C8.61264 38.4506 9.31697 38.4366 10.0214 38.4278L21.383 38.23L53.8457 37.5771L64.0068 37.3568C65.7932 37.3292 67.5804 37.3337 69.3667 37.3075C69.8097 37.3009 70.3433 37.1819 70.7184 36.9165C72.0366 36.0056 71.6322 34.3496 71.6513 32.9904C71.6554 32.6957 71.5457 32.0989 71.8395 31.9275C72.0951 31.9675 72.1194 32.1912 72.133 32.4048C72.1394 33.5425 72.3464 35.0314 71.9208 36.0687C71.6622 36.7133 71.1513 37.2243 70.5067 37.483C69.6447 37.8361 65.7497 37.7761 64.6375 37.7962L56.4477 37.9475L39.3204 38.3243L18.3464 38.7342L12.5646 38.8393C10.5726 38.8833 8.58666 38.9265 6.59335 38.9181C6.22277 38.9166 5.94364 38.8564 5.6008 38.7111C4.97063 38.44 4.47692 37.9255 4.23197 37.2847C4.04629 36.7944 4.0076 34.8959 4.04364 34.3003C4.08076 33.6867 3.91664 30.6301 4.10369 30.2059Z" fill="#FEFEFE"/>
<path d="M68.2797 15.6576C69.9383 15.5836 71.3356 16.1628 71.7065 17.9773C71.9065 18.9549 71.7839 20.1802 71.8444 21.19C71.8778 21.751 71.9447 22.7881 71.8627 23.299C71.7763 23.4125 71.8293 23.3661 71.6861 23.4288C71.2968 23.3687 71.3999 22.4451 71.388 22.1101C71.3584 21.3443 71.3363 20.5783 71.3217 19.8122C71.3083 19.2326 71.3201 18.3151 71.1817 17.7882C71.0772 17.3762 70.8607 17.0011 70.556 16.7047C69.5789 15.7658 67.8351 16.0689 66.5749 16.119C65.4385 16.1675 64.3012 16.1979 63.1637 16.2101L49.3611 16.4771L10.9009 17.312C9.92662 17.329 8.90997 17.4102 7.93051 17.4372C7.38748 17.4742 6.82614 17.4211 6.28909 17.5022C4.90765 17.7107 4.29802 18.8311 4.34749 20.1475C4.35835 20.4364 4.40215 21.0908 4.14161 21.2554C4.00446 21.2452 4.06836 21.266 3.94896 21.1759C3.8845 21.0567 3.87574 21.0069 3.87551 20.867C3.87371 19.7881 3.85401 18.7134 4.65164 17.879C5.10386 17.406 5.91574 17.0696 6.55098 17.0103C7.1588 16.9534 7.95359 16.9553 8.5708 16.9449C9.76163 16.9352 10.9523 16.912 12.1426 16.8756L25.4567 16.5663L68.2797 15.6576Z" fill="#FEFEFE"/>
<path d="M47.3953 7.17085C47.8914 7.25056 47.771 8.49462 47.7701 8.87714C47.77 9.61302 47.7658 10.3489 47.7576 11.0848C47.6519 11.2743 47.5247 11.4293 47.3553 11.5661C47.2092 11.6839 46.9667 11.8361 46.7695 11.8052C46.3697 11.7427 46.7444 10.241 46.4667 9.88934C46.3875 9.78899 46.2714 9.73934 46.1461 9.72865C45.9877 9.71515 45.8243 9.76057 45.6782 9.81794C44.9305 10.1113 38.8319 12.8939 38.6581 13.0776C38.233 13.5269 38.3096 14.6274 38.2949 15.2144L36.5204 15.273C36.5023 14.7527 36.4852 14.1946 36.4061 13.682C36.3258 13.3432 36.1943 13.0117 35.8706 12.8472C34.9927 12.4009 33.9962 12.078 33.1006 11.6672C33.4346 11.4581 33.7626 11.2561 34.1055 11.0626C34.4285 10.8803 34.8036 10.7099 35.1096 10.5083C36.3194 11.0394 37.3359 11.6655 38.6378 11.1045C39.7254 10.6358 40.7921 10.1643 41.8706 9.67232L47.3953 7.17085Z" fill="#FEFEFE"/>
<path d="M25.5177 22.6701C26.1932 22.6107 27.0133 22.8096 27.6041 23.1473C27.9659 23.354 28.8721 23.8142 28.4493 24.3549C28.3459 24.4694 27.9065 24.9863 27.7865 25.0028C27.4668 25.0468 26.8624 24.6371 26.5173 24.5622C26.1344 24.479 25.8303 24.4165 25.4579 24.4754C23.7719 24.742 22.5156 26.4407 22.8359 28.1287C23.118 30.04 25.1029 31.3412 26.9176 30.4715C27.3645 30.2573 27.6851 29.8585 28.0858 30.2559L28.1199 30.2903C28.3688 30.5495 28.9189 30.9636 28.5742 31.3387C27.9578 32.0094 26.9914 32.4319 26.0933 32.5213C24.9432 32.6306 23.7968 32.2788 22.9059 31.5433C21.8921 30.6941 21.2567 29.4775 21.1393 28.1602C20.9924 26.7941 21.4065 25.4268 22.2868 24.3718C23.1561 23.332 24.1784 22.789 25.5177 22.6701Z" fill="#FEFEFE"/>
<path d="M28.6311 10.3038C28.8595 10.3624 29.3489 10.5852 29.5849 10.686L31.2258 11.3871C32.6985 12.0118 34.3648 12.6535 35.8082 13.3203C36.0768 13.9432 36.048 14.5858 36.0764 15.2631L35.022 15.2853L27.8323 15.4446L27.8267 12.3144C28.9395 12.0478 28.4349 11.1793 28.6311 10.3038Z" fill="#FEFEFE"/>
<path d="M46.0527 10.1844C46.2541 10.4107 45.8798 11.4879 46.3762 12.1949C46.36 13.1455 46.3574 14.0961 46.3683 15.0467C43.9585 15.0734 41.5492 15.1237 39.1404 15.1975L38.7339 15.2045C38.7595 14.8457 38.7398 13.5687 39.0345 13.4023C39.5679 13.1009 40.2384 12.8202 40.803 12.5634C41.7277 12.1391 42.656 11.7225 43.5876 11.3134C44.3689 10.9699 45.3019 10.5737 46.0527 10.1844Z" fill="#FEFEFE"/>
<path d="M35.8642 22.5552C36.2384 22.5359 36.8607 22.4489 37.1453 22.6677C37.3105 22.9481 37.313 29.8235 37.3316 30.6143C38.2628 30.621 39.2123 30.5926 40.1422 30.5831C41.0646 30.5737 40.9524 30.742 40.9718 31.579C40.9795 31.9098 41.0507 32.0882 40.7111 32.2324C40.1472 32.2851 36.1949 32.3816 35.8201 32.2175C35.7446 32.0253 35.7363 31.7743 35.7251 31.5687C35.6723 30.6078 35.5248 22.9503 35.6275 22.7305C35.6774 22.624 35.7626 22.5948 35.8642 22.5552Z" fill="#FEFEFE"/>
<path d="M17.8785 22.8107C18.2614 22.7976 18.8641 22.7161 19.142 22.9705C19.2282 23.3134 19.2152 24.3069 19.2192 24.706L19.2462 27.2892C19.2611 28.8781 19.3007 30.464 19.3323 32.0525C19.3385 32.362 19.2796 32.4725 18.9969 32.587C18.7894 32.6165 18.5808 32.6378 18.3716 32.6511C18.1249 32.6674 17.927 32.663 17.738 32.4994C17.6281 32.1049 17.6661 31.2294 17.6621 30.7893L17.6315 28.8964L17.5676 25.0906C17.5591 24.54 17.5365 23.9882 17.5344 23.4381C17.5331 23.108 17.5791 22.9507 17.8785 22.8107Z" fill="#FEFEFE"/>
<path d="M27.4002 7.27238C27.6192 7.32538 28.1249 7.58396 28.3585 7.68727L30.5681 8.64543C31.1886 8.91158 32.8529 9.53272 33.3512 9.82061C32.6123 10.267 32.2368 10.4478 31.5065 10.9775L31.2003 10.8435C30.7392 10.6571 28.7921 9.68383 28.4239 9.84006C27.962 10.0361 28.229 11.1836 28.078 11.5859C28.0384 11.6914 27.965 11.7749 27.8565 11.8116C27.7319 11.8538 27.6156 11.8352 27.5052 11.7677C27.3176 11.6533 27.2245 11.3611 27.1829 11.1603C27.0547 10.5413 27.0909 8.32035 27.2197 7.69766C27.2529 7.53675 27.313 7.41051 27.4002 7.27238Z" fill="#FEFEFE"/>
<path d="M32.2633 27.1983C32.6022 27.1914 33.3286 27.0713 33.5699 27.2984C33.8121 27.5262 33.8342 28.4723 33.5892 28.6904C33.3016 28.9463 32.3461 28.8603 31.9419 28.8658C31.5819 28.8829 30.9271 28.9526 30.6214 28.8298C30.3316 28.7134 30.3083 27.5023 30.5327 27.3483C30.8279 27.1457 31.8805 27.2099 32.2633 27.1983Z" fill="#FEFEFE"/>
<path d="M33.7816 9.95724C34.0023 9.98923 34.5477 10.2435 34.7758 10.3407C34.0519 10.8802 33.7919 10.9822 33.0547 11.6475L32.7034 11.4957C32.3179 11.3327 31.9472 11.1813 31.5744 10.9893C32.2086 10.6173 33.0973 10.2863 33.7816 9.95724Z" fill="#FEFEFE"/>
<path d="M71.621 25.2006C71.718 25.2095 71.9538 25.2466 71.9487 25.3705C71.9158 26.1752 72.2163 30.0302 71.9671 30.4686C71.8461 30.4684 71.8303 30.4582 71.7161 30.4265C71.65 30.3578 71.6144 30.3423 71.6104 30.2347C71.5522 28.6403 71.5221 27.0351 71.5183 25.4392C71.5181 25.3509 71.5739 25.2704 71.621 25.2006Z" fill="#FEFEFE"/>
<path d="M4.07284 23.1997C4.30444 23.2713 4.36051 23.3291 4.36336 23.581C4.38112 25.1504 4.39384 26.7229 4.40086 28.292C4.4011 28.3446 4.29831 28.4578 4.26226 28.4984C4.13697 28.4767 4.14376 28.4824 4.04182 28.408C3.99664 28.3254 3.98597 28.2486 3.98573 28.1547C3.98174 26.5739 3.92327 24.9912 3.93673 23.4114C3.93726 23.3488 4.03109 23.2471 4.07284 23.1997Z" fill="#FEFEFE"/>
<path d="M46.9889 12.222C47.0859 12.22 47.1026 12.2214 47.1985 12.2367C47.2194 12.4047 47.2215 14.9426 47.2031 15.0066L47.1148 15.0348C46.999 15.0364 46.8987 15.0539 46.8041 14.9957C46.7675 14.3808 46.7819 12.9819 46.8027 12.3081C46.8039 12.271 46.9336 12.2411 46.9889 12.222Z" fill="#FEFEFE"/>
<path d="M36.4279 0.478113C36.6523 0.453843 36.9468 0.367674 37.0413 0.62551C36.8979 0.899452 36.3051 0.850097 36.0098 0.878597C35.4499 0.933815 34.8911 0.998535 34.3334 1.07268C33.1621 1.23915 31.9944 1.43056 30.8314 1.64669C27.6437 2.22492 24.446 2.82573 22.0674 5.22655C19.6728 7.64371 17.7741 10.4995 16.266 13.5397C16.1919 13.7004 16.145 13.8137 15.9784 13.8821L15.9115 13.8525C15.7492 13.5243 16.1954 12.8367 16.358 12.5323C17.4574 10.4641 18.7601 8.51066 20.247 6.70084C21.2449 5.50139 22.2512 4.42388 23.5847 3.58291C24.2902 3.14004 25.0406 2.77281 25.8232 2.48729C27.1855 1.99351 28.4846 1.73768 29.8993 1.45698C32.0579 1.02236 34.2368 0.695648 36.4279 0.478113Z" fill="#444444"/>
<path d="M56.2907 40.9641C56.4419 41.0352 56.4457 41.0344 56.4765 41.1863C56.4371 41.3502 56.0464 41.887 55.9266 42.0627C54.5201 44.1346 52.9177 46.0664 51.1414 47.8314C47.7521 51.2212 44.136 53.1328 39.2896 53.1316C39.2692 53.1282 39.1991 53.102 39.1767 53.0942C39.1361 52.9777 39.14 53.0366 39.1733 52.9111C39.3526 52.7625 39.7462 52.8074 39.9964 52.7975C46.1429 52.5545 50.3362 48.7225 53.9858 44.1387C54.5202 43.4761 55.0005 42.7726 55.4986 42.0838C55.7435 41.7453 56.0128 41.2477 56.2907 40.9641Z" fill="#444444"/>
<path d="M18.8892 42.3811C18.9501 42.3998 19.039 42.4349 19.0719 42.4921C19.6767 43.5423 20.3398 44.4343 21.1117 45.3679C22.5509 47.0794 24.252 48.5523 26.1517 49.7318C27.0438 50.2912 27.9436 50.7537 28.9178 51.1535C29.0511 51.2083 29.2807 51.29 29.3503 51.4101C29.3432 51.5531 29.3348 51.5222 29.2498 51.6617C28.822 51.6147 28.2646 51.3292 27.8727 51.1368C26.2015 50.3265 24.6425 49.3028 23.2346 48.0914C21.7231 46.8067 20.3527 45.2441 19.2881 43.5815C19.1293 43.3335 18.7797 42.9321 18.7523 42.6182C18.743 42.5126 18.8186 42.4595 18.8892 42.3811Z" fill="#444444"/>
<path d="M47.5515 3.59337C47.8934 3.60955 48.4101 4.03994 48.6931 4.24924C49.1839 4.64794 49.843 5.03915 50.2773 5.49886C52.2098 7.54485 54.0745 9.67151 55.6327 12.0215C55.7648 12.2206 55.7703 12.2131 55.7248 12.4373C55.6952 12.4342 55.5422 12.4096 55.5376 12.4052C55.1628 12.047 54.5345 11.0771 54.2552 10.694C53.3783 9.45776 52.3191 8.32741 51.3331 7.18415C50.4463 6.15585 49.6024 5.28125 48.4695 4.52392C48.1613 4.31782 47.8272 4.11505 47.5425 3.87555C47.492 3.73713 47.5135 3.76459 47.5515 3.59337Z" fill="#444444"/>
</svg>
