<svg width="118" height="32" viewBox="0 0 118 32" fill="none" xmlns="http://www.w3.org/2000/svg">
<g clip-path="url(#clip0_193_398)">
<path d="M15.3796 32C23.8735 32 30.7592 24.8365 30.7592 16C30.7592 7.16346 23.8735 0 15.3796 0C6.88568 0 0 7.16346 0 16C0 24.8365 6.88568 32 15.3796 32Z" fill="#59B53B"/>
<path d="M12.326 8.72656H15.3794L11.2011 23.7569H8.38867L12.326 8.72656ZM19.3167 8.72656H22.3702L18.4328 23.7569H15.3794L19.3167 8.72656Z" fill="white"/>
<path d="M46.5314 11.2578L49.0176 17.7658L49.579 19.9352H49.6592L50.0602 17.7658L51.985 11.3413H53.5891L49.98 22.6887H49.178L46.3709 15.3462L45.9699 13.5106H45.8897L45.4887 15.3462L42.7619 22.6887H41.9599L38.1904 11.2578H40.0351L42.1203 17.6825L42.5213 19.8518L43.0025 17.6825L45.2482 11.2578H46.5314Z" fill="white"/>
<path d="M62.8926 21.5208C62.4916 21.8545 61.9302 22.1883 61.2886 22.3551C60.647 22.522 59.9252 22.6889 59.2034 22.6889C58.4014 22.6889 57.6796 22.522 57.1182 22.2717C56.5567 22.0214 55.9954 21.6042 55.6745 21.1036C55.2736 20.603 55.033 20.0189 54.7923 19.268C54.6319 18.5171 54.5518 17.7661 54.5518 16.8484C54.5518 14.9293 54.9528 13.5109 55.7548 12.5097C56.5567 11.5084 57.7598 11.0078 59.2034 11.0078C59.6846 11.0078 60.1658 11.0913 60.647 11.1747C61.1282 11.2581 61.5292 11.5084 61.9302 11.8422C62.3312 12.1759 62.652 12.5931 62.8926 13.1772C63.1332 13.7612 63.2937 14.5121 63.2937 15.43C63.2937 15.9306 63.2134 16.4312 63.1332 17.0152H56.3162C56.3162 17.6828 56.3964 18.2668 56.4766 18.7674C56.637 19.268 56.7974 19.6852 57.0379 20.0189C57.2786 20.3527 57.6796 20.603 58.0806 20.8533C58.4816 21.0202 59.043 21.1036 59.6846 21.1036C60.1658 21.1036 60.647 21.0202 61.1282 20.8533C61.6094 20.6865 62.0104 20.4361 62.251 20.2692L62.8926 21.5208ZM59.2034 12.5931C58.4014 12.5931 57.6796 12.8434 57.1984 13.2606C56.7172 13.6778 56.3964 14.5121 56.3162 15.5968H61.6094C61.6094 14.5121 61.3688 13.6778 60.9678 13.2606C60.5668 12.76 60.0054 12.5931 59.2034 12.5931Z" fill="white"/>
<path d="M65.6992 6.83594H67.3836V12.3427H67.4635C67.7845 11.9255 68.1855 11.5918 68.7469 11.3415C69.2278 11.0912 69.7893 11.0077 70.4313 11.0077C71.7946 11.0077 72.837 11.5083 73.5589 12.4261C74.2809 13.344 74.6019 14.7623 74.6019 16.6814C74.6019 18.6004 74.1204 20.1023 73.2379 21.1035C72.3561 22.1047 71.0727 22.6054 69.3883 22.6054C68.5864 22.6054 67.8645 22.522 67.2231 22.355C66.5817 22.1882 66.1002 22.0213 65.7792 21.771V6.83594H65.6992ZM70.1103 12.593C69.3883 12.593 68.8269 12.7599 68.346 13.1771C67.8645 13.5943 67.5441 14.1783 67.3836 14.9292V20.5195C67.624 20.6864 67.945 20.7698 68.346 20.8532C68.7469 20.9367 69.1479 20.9367 69.5488 20.9367C70.5112 20.9367 71.3131 20.6029 71.8746 19.852C72.436 19.101 72.757 18.0164 72.757 16.5145C72.757 15.9305 72.6765 15.4299 72.5965 14.9292C72.5166 14.4286 72.3561 14.0114 72.1156 13.6777C71.8746 13.344 71.6341 13.0102 71.3131 12.8433C70.9927 12.6764 70.5918 12.593 70.1103 12.593Z" fill="white"/>
<path d="M81.9801 19.351C81.9801 18.9337 81.8202 18.6 81.5791 18.2662C81.3387 18.0159 81.0177 17.7656 80.6167 17.5988C80.2158 17.4319 79.8149 17.265 79.4139 17.0982C78.9324 16.9313 78.5314 16.7644 78.2111 16.5141C77.8101 16.2638 77.4891 15.93 77.2487 15.5963C77.0076 15.1791 76.8477 14.6785 76.8477 14.011C76.8477 12.9263 77.1681 12.1754 77.7296 11.6748C78.291 11.1741 79.0929 10.9238 80.1359 10.9238C80.9378 10.9238 81.5792 11.0073 82.0607 11.1741C82.5415 11.341 83.0231 11.5079 83.424 11.6748L83.0231 13.1766C82.7021 13.0098 82.3011 12.8429 81.8202 12.7594C81.3387 12.5926 80.8572 12.5926 80.2964 12.5926C79.6544 12.5926 79.1735 12.676 78.9324 12.9263C78.612 13.1766 78.5314 13.5104 78.5314 14.0945C78.5314 14.5116 78.692 14.7619 78.9324 15.0122C79.1735 15.2625 79.4938 15.4294 79.8948 15.5963C80.2964 15.7632 80.6973 15.93 81.0983 16.0969C81.5791 16.2638 81.9801 16.5141 82.3011 16.7644C82.7021 17.0147 83.0231 17.3485 83.2635 17.7656C83.5039 18.1828 83.6645 18.6834 83.6645 19.351C83.6645 19.8516 83.5845 20.2687 83.424 20.6859C83.2635 21.1031 83.0231 21.4369 82.702 21.7706C82.381 22.1043 81.9801 22.2712 81.4992 22.4381C81.0177 22.6049 80.4562 22.6884 79.8948 22.6884C79.0929 22.6884 78.3709 22.6049 77.8101 22.4381C77.2487 22.2712 76.7672 22.1043 76.3662 21.854L76.8477 20.3522C77.1681 20.519 77.569 20.6859 78.1305 20.8528C78.692 21.0196 79.1735 21.1031 79.7349 21.1031C80.3763 21.1031 80.8572 20.9362 81.2588 20.6859C81.6597 20.4356 81.9801 20.0184 81.9801 19.351Z" fill="white"/>
<path d="M96.6573 18.4334L97.2188 20.6027H97.2994L97.7802 18.4334L99.8655 11.2578H101.55L98.4216 21.2702C98.1812 22.0211 97.9407 22.6886 97.7003 23.3561C97.4592 24.0236 97.2188 24.6076 96.8978 25.1917C96.5774 25.6924 96.2564 26.1095 95.9354 26.4433C95.615 26.777 95.1335 26.9439 94.7325 26.9439C94.2517 26.9439 93.7701 26.8604 93.4491 26.6936L93.7702 25.1917C93.9307 25.2752 94.1711 25.2752 94.3316 25.2752C94.7325 25.2752 95.1335 25.0248 95.4545 24.6076C95.8554 24.1905 96.0959 23.4395 96.3363 22.3548L92.0059 11.2578H93.9306L96.6573 18.4334Z" fill="white"/>
<path d="M105.318 19.6846C105.318 20.1852 105.398 20.6024 105.559 20.7692C105.719 21.0195 105.96 21.103 106.281 21.103C106.441 21.103 106.682 21.103 106.842 21.0196C107.083 21.0196 107.323 20.9361 107.564 20.8527L107.724 22.2711C107.484 22.3546 107.163 22.5214 106.762 22.5214C106.361 22.6049 106.04 22.6049 105.719 22.6049C105.077 22.6049 104.516 22.438 104.115 22.0208C103.714 21.6036 103.474 21.0195 103.474 20.1018V6.75195H105.158V19.6846H105.318Z" fill="white"/>
<path d="M117.509 21.5208C117.108 21.8545 116.547 22.1883 115.905 22.3551C115.263 22.522 114.541 22.6889 113.819 22.6889C113.018 22.6889 112.296 22.522 111.735 22.2717C111.173 22.0214 110.612 21.6042 110.291 21.1036C109.89 20.603 109.649 20.0189 109.408 19.268C109.249 18.5171 109.168 17.7661 109.168 16.8484C109.168 14.9293 109.569 13.5109 110.371 12.5097C111.173 11.5084 112.376 11.0078 113.819 11.0078C114.301 11.0078 114.782 11.0913 115.263 11.1747C115.744 11.2581 116.146 11.5084 116.547 11.8422C116.948 12.1759 117.268 12.5931 117.509 13.1772C117.75 13.7612 117.91 14.5121 117.91 15.43C117.91 15.9306 117.83 16.4312 117.75 17.0152H110.932C110.932 17.6828 111.013 18.2668 111.093 18.7674C111.253 19.268 111.414 19.6852 111.654 20.0189C111.895 20.3527 112.296 20.603 112.697 20.8533C113.098 21.0202 113.66 21.1036 114.301 21.1036C114.782 21.1036 115.263 21.0202 115.744 20.8533C116.226 20.6865 116.627 20.4361 116.867 20.2692L117.509 21.5208ZM113.819 12.5931C113.018 12.5931 112.296 12.8434 111.815 13.2606C111.333 13.6778 111.013 14.5121 110.932 15.5968H116.226C116.226 14.5121 115.985 13.6778 115.584 13.2606C115.183 12.76 114.541 12.5931 113.819 12.5931Z" fill="white"/>
<path d="M12.326 8.72656H15.3794L11.2011 23.7569H8.38867L12.326 8.72656ZM19.3167 8.72656H22.3702L18.4328 23.7569H15.3794L19.3167 8.72656Z" fill="white"/>
<path d="M46.5314 11.2578L49.0176 17.7658L49.579 19.9352H49.6592L50.0602 17.7658L51.985 11.3413H53.5891L49.98 22.6887H49.178L46.3709 15.3462L45.9699 13.5106H45.8897L45.4887 15.3462L42.7619 22.6887H41.9599L38.1904 11.2578H40.0351L42.1203 17.6825L42.5213 19.8518L43.0025 17.6825L45.2482 11.2578H46.5314Z" fill="white"/>
<path d="M62.8926 21.5208C62.4916 21.8545 61.9302 22.1883 61.2886 22.3551C60.647 22.522 59.9252 22.6889 59.2034 22.6889C58.4014 22.6889 57.6796 22.522 57.1182 22.2717C56.5567 22.0214 55.9954 21.6042 55.6745 21.1036C55.2736 20.603 55.033 20.0189 54.7923 19.268C54.6319 18.5171 54.5518 17.7661 54.5518 16.8484C54.5518 14.9293 54.9528 13.5109 55.7548 12.5097C56.5567 11.5084 57.7598 11.0078 59.2034 11.0078C59.6846 11.0078 60.1658 11.0913 60.647 11.1747C61.1282 11.2581 61.5292 11.5084 61.9302 11.8422C62.3312 12.1759 62.652 12.5931 62.8926 13.1772C63.1332 13.7612 63.2937 14.5121 63.2937 15.43C63.2937 15.9306 63.2134 16.4312 63.1332 17.0152H56.3162C56.3162 17.6828 56.3964 18.2668 56.4766 18.7674C56.637 19.268 56.7974 19.6852 57.0379 20.0189C57.2786 20.3527 57.6796 20.603 58.0806 20.8533C58.4816 21.0202 59.043 21.1036 59.6846 21.1036C60.1658 21.1036 60.647 21.0202 61.1282 20.8533C61.6094 20.6865 62.0104 20.4361 62.251 20.2692L62.8926 21.5208ZM59.2034 12.5931C58.4014 12.5931 57.6796 12.8434 57.1984 13.2606C56.7172 13.6778 56.3964 14.5121 56.3162 15.5968H61.6094C61.6094 14.5121 61.3688 13.6778 60.9678 13.2606C60.5668 12.76 60.0054 12.5931 59.2034 12.5931Z" fill="white"/>
<path d="M65.6992 6.83594H67.3836V12.3427H67.4635C67.7845 11.9255 68.1855 11.5918 68.7469 11.3415C69.2278 11.0912 69.7893 11.0077 70.4313 11.0077C71.7946 11.0077 72.837 11.5083 73.5589 12.4261C74.2809 13.344 74.6019 14.7623 74.6019 16.6814C74.6019 18.6004 74.1204 20.1023 73.2379 21.1035C72.3561 22.1047 71.0727 22.6054 69.3883 22.6054C68.5864 22.6054 67.8645 22.522 67.2231 22.355C66.5817 22.1882 66.1002 22.0213 65.7792 21.771V6.83594H65.6992ZM70.1103 12.593C69.3883 12.593 68.8269 12.7599 68.346 13.1771C67.8645 13.5943 67.5441 14.1783 67.3836 14.9292V20.5195C67.624 20.6864 67.945 20.7698 68.346 20.8532C68.7469 20.9367 69.1479 20.9367 69.5488 20.9367C70.5112 20.9367 71.3131 20.6029 71.8746 19.852C72.436 19.101 72.757 18.0164 72.757 16.5145C72.757 15.9305 72.6765 15.4299 72.5965 14.9292C72.5166 14.4286 72.3561 14.0114 72.1156 13.6777C71.8746 13.344 71.6341 13.0102 71.3131 12.8433C70.9927 12.6764 70.5918 12.593 70.1103 12.593Z" fill="white"/>
<path d="M81.9801 19.351C81.9801 18.9337 81.8202 18.6 81.5791 18.2662C81.3387 18.0159 81.0177 17.7656 80.6167 17.5988C80.2158 17.4319 79.8149 17.265 79.4139 17.0982C78.9324 16.9313 78.5314 16.7644 78.2111 16.5141C77.8101 16.2638 77.4891 15.93 77.2487 15.5963C77.0076 15.1791 76.8477 14.6785 76.8477 14.011C76.8477 12.9263 77.1681 12.1754 77.7296 11.6748C78.291 11.1741 79.0929 10.9238 80.1359 10.9238C80.9378 10.9238 81.5792 11.0073 82.0607 11.1741C82.5415 11.341 83.0231 11.5079 83.424 11.6748L83.0231 13.1766C82.7021 13.0098 82.3011 12.8429 81.8202 12.7594C81.3387 12.5926 80.8572 12.5926 80.2964 12.5926C79.6544 12.5926 79.1735 12.676 78.9324 12.9263C78.612 13.1766 78.5314 13.5104 78.5314 14.0945C78.5314 14.5116 78.692 14.7619 78.9324 15.0122C79.1735 15.2625 79.4938 15.4294 79.8948 15.5963C80.2964 15.7632 80.6973 15.93 81.0983 16.0969C81.5791 16.2638 81.9801 16.5141 82.3011 16.7644C82.7021 17.0147 83.0231 17.3485 83.2635 17.7656C83.5039 18.1828 83.6645 18.6834 83.6645 19.351C83.6645 19.8516 83.5845 20.2687 83.424 20.6859C83.2635 21.1031 83.0231 21.4369 82.702 21.7706C82.381 22.1043 81.9801 22.2712 81.4992 22.4381C81.0177 22.6049 80.4562 22.6884 79.8948 22.6884C79.0929 22.6884 78.3709 22.6049 77.8101 22.4381C77.2487 22.2712 76.7672 22.1043 76.3662 21.854L76.8477 20.3522C77.1681 20.519 77.569 20.6859 78.1305 20.8528C78.692 21.0196 79.1735 21.1031 79.7349 21.1031C80.3763 21.1031 80.8572 20.9362 81.2588 20.6859C81.6597 20.4356 81.9801 20.0184 81.9801 19.351Z" fill="white"/>
<path d="M84.8672 11.2578H86.5515V9.0885L88.2359 8.58789V11.2578H91.1231V12.8431H88.2359V19.0174C88.2359 19.7684 88.3158 20.3524 88.4763 20.6861C88.6368 21.0199 88.9579 21.1867 89.4387 21.1867C89.8397 21.1867 90.1607 21.1867 90.4011 21.1033C90.6422 21.0199 90.9626 20.9364 91.2836 20.7696L91.6846 22.1046C91.2836 22.2715 90.8827 22.4383 90.4011 22.6052C89.9203 22.6886 89.4387 22.7721 88.9579 22.7721C88.0754 22.7721 87.5139 22.5218 87.113 22.0211C86.792 21.5205 86.5515 20.6861 86.5515 19.4346V12.9266H84.8672V11.2578Z" fill="white"/>
<path d="M96.6573 18.4334L97.2188 20.6027H97.2994L97.7802 18.4334L99.8655 11.2578H101.55L98.4216 21.2702C98.1812 22.0211 97.9407 22.6886 97.7003 23.3561C97.4592 24.0236 97.2188 24.6076 96.8978 25.1917C96.5774 25.6924 96.2564 26.1095 95.9354 26.4433C95.615 26.777 95.1335 26.9439 94.7325 26.9439C94.2517 26.9439 93.7701 26.8604 93.4491 26.6936L93.7702 25.1917C93.9307 25.2752 94.1711 25.2752 94.3316 25.2752C94.7325 25.2752 95.1335 25.0248 95.4545 24.6076C95.8554 24.1905 96.0959 23.4395 96.3363 22.3548L92.0059 11.2578H93.9306L96.6573 18.4334Z" fill="white"/>
<path d="M105.318 19.6846C105.318 20.1852 105.398 20.6024 105.559 20.7692C105.719 21.0195 105.96 21.103 106.281 21.103C106.441 21.103 106.682 21.103 106.842 21.0196C107.083 21.0196 107.323 20.9361 107.564 20.8527L107.724 22.2711C107.484 22.3546 107.163 22.5214 106.762 22.5214C106.361 22.6049 106.04 22.6049 105.719 22.6049C105.077 22.6049 104.516 22.438 104.115 22.0208C103.714 21.6036 103.474 21.0195 103.474 20.1018V6.75195H105.158V19.6846H105.318Z" fill="white"/>
<path d="M117.509 21.5208C117.108 21.8545 116.547 22.1883 115.905 22.3551C115.263 22.522 114.541 22.6889 113.819 22.6889C113.018 22.6889 112.296 22.522 111.735 22.2717C111.173 22.0214 110.612 21.6042 110.291 21.1036C109.89 20.603 109.649 20.0189 109.408 19.268C109.249 18.5171 109.168 17.7661 109.168 16.8484C109.168 14.9293 109.569 13.5109 110.371 12.5097C111.173 11.5084 112.376 11.0078 113.819 11.0078C114.301 11.0078 114.782 11.0913 115.263 11.1747C115.744 11.2581 116.146 11.5084 116.547 11.8422C116.948 12.1759 117.268 12.5931 117.509 13.1772C117.75 13.7612 117.91 14.5121 117.91 15.43C117.91 15.9306 117.83 16.4312 117.75 17.0152H110.932C110.932 17.6828 111.013 18.2668 111.093 18.7674C111.253 19.268 111.414 19.6852 111.654 20.0189C111.895 20.3527 112.296 20.603 112.697 20.8533C113.098 21.0202 113.66 21.1036 114.301 21.1036C114.782 21.1036 115.263 21.0202 115.744 20.8533C116.226 20.6865 116.627 20.4361 116.867 20.2692L117.509 21.5208ZM113.819 12.5931C113.018 12.5931 112.296 12.8434 111.815 13.2606C111.333 13.6778 111.013 14.5121 110.932 15.5968H116.226C116.226 14.5121 115.985 13.6778 115.584 13.2606C115.183 12.76 114.541 12.5931 113.819 12.5931Z" fill="white"/>
</g>
<defs>
<clipPath id="clip0_193_398">
<rect width="118" height="32" fill="white"/>
</clipPath>
</defs>
</svg>
